<svg width="80" height="80" viewBox="0 0 80 80" fill="none" xmlns="http://www.w3.org/2000/svg">
<g clip-path="url(#clip0_2490_8810)">
<path fill-rule="evenodd" clip-rule="evenodd" d="M11.7094 11.7099C27.3275 -3.90818 52.6568 -3.90818 68.2749 11.7099C83.893 27.3279 83.893 52.6573 68.2749 68.2754C52.6568 83.8934 27.3275 83.8934 11.7094 68.2754C-3.90867 52.6573 -3.90867 27.3279 11.7094 11.7099ZM24.722 54.8039C31.4577 66.6618 48.5414 66.6618 55.2771 54.8039C57.853 50.2739 57.853 41.7617 55.2771 37.2317L43.7449 19.1414C41.9981 16.4027 38.001 16.4027 36.2542 19.1414L24.722 37.2317C22.1461 41.7617 22.1461 50.2739 24.722 54.8039ZM32.628 47.4907C32.628 43.4197 35.9292 40.1184 40.0003 40.1184C44.0714 40.1184 47.3726 43.4197 47.3726 47.4907C47.3726 51.5618 44.0714 54.8631 40.0003 54.8631C35.9292 54.8631 32.628 51.5618 32.628 47.4907Z" fill="url(#paint0_linear_2490_8810)"/>
</g>
<defs>
<linearGradient id="paint0_linear_2490_8810" x1="10.6955" y1="11.7859" x2="64.1659" y2="80.7803" gradientUnits="userSpaceOnUse">
<stop stop-color="#00F2FE"/>
<stop offset="0.535" stop-color="#4FACFE"/>
<stop offset="0.975" stop-color="#C471F5"/>
</linearGradient>
<clipPath id="clip0_2490_8810">
<rect width="80" height="80" fill="white"/>
</clipPath>
</defs>
</svg>
