<svg width="150" height="50" viewBox="0 0 150 50" fill="none" xmlns="http://www.w3.org/2000/svg">
<path d="M81.8367 32.1141C81.8367 21.8305 89.5219 14.228 99.7171 14.228C109.912 14.228 117.526 21.8901 117.526 32.1141C117.526 42.3381 109.9 50.0002 99.6454 50.0002C89.3905 50.0002 81.8367 42.4692 81.8367 32.1141ZM112.207 32.1141C112.207 24.5831 107.02 18.9468 99.6574 18.9468C92.2948 18.9468 87.1673 24.6427 87.1673 32.1141C87.1673 39.5855 92.3546 45.2814 99.6574 45.2814C106.96 45.2814 112.207 39.7166 112.207 32.1141Z" fill="#2C2B2F"/>
<path d="M6.44223 38.8584V19.459H0V15.0739H5.12749C6.04781 15.0739 6.77689 14.4781 6.77689 13.3699V5.18351H11.6414V15.0739H22.1594V19.459H11.6414V38.7869C11.6414 42.4571 13.0279 44.6139 16.9602 44.6139H21.6932V49.1301H16.6374C10.3267 49.1301 6.45418 45.7221 6.45418 38.8465L6.44223 38.8584ZM27.4064 32.1139C27.4064 21.2345 34.8287 14.2278 44.1633 14.2278C54.5498 14.2278 60.7291 21.8303 60.7291 31.6611V33.949H32.8566C33.1195 40.765 37.5179 45.2812 44.5578 45.2812C49.0876 45.2812 53.4263 43.1244 55.004 39.1206H60.3944C58.494 45.4719 52.506 50 44.4861 50C34.0398 50 27.3944 42.3379 27.3944 32.1139H27.4064ZM55.2191 29.3613C54.753 22.5453 49.9602 18.9466 44.1753 18.9466C38.3904 18.9466 33.5259 23.0696 33 29.3613H55.2191ZM67.9721 41.8732V0H73.1594V41.8732C73.1594 43.5772 74.008 44.5543 75.6574 44.5543H77.2351V49.142H74.737C70.4582 49.142 67.9602 46.5205 67.9602 41.8732H67.9721ZM123.454 39.2517H128.522C129.108 43.3151 132 45.4719 136.996 45.4719C141.992 45.4719 144.944 42.9814 144.944 39.5138C144.944 29.9452 124.506 37.2259 124.506 23.725C124.506 17.9576 129.693 14.2278 136.865 14.2278C143.175 14.2278 148.434 17.898 148.96 24.0586H143.964C143.51 20.8413 141.072 18.6845 136.542 18.6845C132.263 18.6845 129.514 20.7817 129.514 23.725C129.514 32.3761 150.024 25.1668 150.024 39.2517C150.024 45.6744 144.693 50 136.745 50C128.797 50 124.064 45.6149 123.466 39.2517H123.454Z" fill="#2C2B2F"/>
</svg>
