<?xml version="1.0" encoding="UTF-8"?>
<svg id="Layer_1" data-name="Layer 1" xmlns="http://www.w3.org/2000/svg" version="1.1" xmlns:xlink="http://www.w3.org/1999/xlink" viewBox="0 0 176 30">
  <defs>
    <style>
      .cls-1 {
        fill: url(#linear-gradient);
      }

      .cls-1, .cls-2 {
        stroke-width: 0px;
      }

      .cls-2 {
        fill: #fff;
      }
    </style>
    <linearGradient id="linear-gradient" x1="149.9" y1="30.6" x2="149.9" y2="1" gradientTransform="translate(0 30.6) scale(1 -1)" gradientUnits="userSpaceOnUse">
      <stop offset="0" stop-color="#557fff"/>
      <stop offset="1" stop-color="#c19aff"/>
    </linearGradient>
  </defs>
  <path class="cls-2" d="M.2,21h3.3c0,3.3,2.7,5.9,7,5.9s6.4-1.8,6.4-4.8c0-8.9-15.7-2.7-15.7-14,0-4.1,3.4-7.6,9.1-7.6s9.3,2.4,9.3,8.2h-3.4c0-3.2-2.2-5.2-6-5.2s-5.8,2.2-5.8,4.6c0,7.7,15.7,2.4,15.7,13.8s-3.6,8-9.8,8S.2,26.3.2,21h0ZM25.5,1.1h3.4l14.8,22.7h.2V1.1h3.2v28.4h-3.5L29,6.8h-.2v22.7h-3.3V1.1ZM62.1,1.1h3.8l10.9,28.4h-3.4l-2.6-6.7h-13.7l-2.6,6.7h-3.4L62.1,1.1ZM69.8,19.7l-5.6-14.8h-.2l-5.6,14.8h11.4ZM81,1.1h9.6c5.8,0,9.2,3.4,9.2,8.4s-2.7,7.3-5.9,8.2l6.6,11.8h-3.8l-6.3-11.5h-6.2v11.5h-3.3V1.1ZM90.6,15.1c3.3,0,5.8-1.9,5.8-5.6s-2-5.5-6-5.5h-6.1v11.1h6.3,0ZM121.7,29.5l-9-13.8-3.9,4.5v9.2h-3.3V1.1h3.3v14.3h.2l12.1-14.3h4.1l-10.3,12,10.8,16.4h-4.1,0Z"/>
  <path class="cls-1" d="M136.3,0l36.4,5.7c2,.3,3.4,2.2,3.1,4.2l-2.7,16.4c-.3,1.8-1.8,3.1-3.6,3.1h-33.2c-1.2,0-2.4-.6-3-1.6l-8.6-12.6c-.9-1.4-.8-3.2.2-4.4l8.1-9.6c.8-1,2.1-1.5,3.4-1.3h0ZM140.6,22.4h2.5v-3h-1.6c-1.1,0-1.6-.6-1.6-1.5v-5.1h3.3v-2.9h-3.3v-3.4h-3.5v2.3c0,.7-.4,1.1-1,1.1h-1.2v2.8h2v5.3c0,2.7,1.6,4.3,4.3,4.3h0ZM151.4,22.7c4,0,6.7-2.9,6.7-6.5s-2.7-6.5-6.7-6.5-6.7,2.9-6.7,6.5,2.7,6.5,6.7,6.5ZM151.4,19.4c-1.7,0-3-1.3-3-3.2s1.3-3.2,3-3.2,3,1.3,3,3.2-1.3,3.2-3,3.2ZM160.5,22.4h3.7v-5.7c0-2.2,1.2-3.4,3-3.4h1.4v-3.4h-1.2c-1.7,0-2.8,1.1-3.2,2h-.2v-1.9h-3.4v12.5h0Z"/>
</svg>