<svg width="141" height="40" viewBox="0 0 141 40" fill="none" xmlns="http://www.w3.org/2000/svg">
<g clip-path="url(#clip0_2088_14037)">
<path d="M54.916 28.1038C54.916 21.2641 60.06 16.2076 66.884 16.2076C73.708 16.2076 78.804 21.3037 78.804 28.1038C78.804 34.9039 73.7 40 66.836 40C59.972 40 54.916 34.9911 54.916 28.1038ZM75.244 28.1038C75.244 23.0949 71.772 19.3461 66.844 19.3461C61.916 19.3461 58.484 23.1345 58.484 28.1038C58.484 33.0731 61.956 36.8615 66.844 36.8615C71.732 36.8615 75.244 33.1603 75.244 28.1038Z" fill="white"/>
<path d="M4.45165 32.5897V19.687H0.139648V16.7704H3.57165C4.18765 16.7704 4.67565 16.3741 4.67565 15.637V10.1922H7.93165V16.7704H14.9716V19.687H7.93165V32.5421C7.93165 34.9832 8.85965 36.4177 11.4916 36.4177H14.6596V39.4215H11.2756C7.05165 39.4215 4.45965 37.1548 4.45965 32.5818L4.45165 32.5897ZM18.4836 28.1039C18.4836 20.8679 23.4516 16.2077 29.6996 16.2077C36.6516 16.2077 40.7877 21.2641 40.7877 27.8027V29.3244H22.1316C22.3076 33.8578 25.2516 36.8615 29.9636 36.8615C32.9956 36.8615 35.8997 35.427 36.9557 32.764H40.5636C39.2916 36.9883 35.2836 40 29.9156 40C22.9237 40 18.4756 34.9039 18.4756 28.1039H18.4836ZM37.0997 26.2731C36.7957 21.7397 33.5796 19.3462 29.7076 19.3462C25.8356 19.3462 22.5796 22.0884 22.2276 26.2731H37.0997ZM45.6356 34.5948V6.74463H49.1076V34.5948C49.1076 35.7282 49.6756 36.3781 50.7796 36.3781H51.8357V39.4294H50.1636C47.2996 39.4294 45.6277 37.6858 45.6277 34.5948H45.6356ZM82.7717 32.8512H86.1556C86.5556 35.5538 88.4917 36.9883 91.8277 36.9883C95.1637 36.9883 97.1477 35.3319 97.1477 33.0256C97.1477 26.6614 83.4677 31.5039 83.4677 22.5243C83.4677 18.6884 86.9397 16.2077 91.7396 16.2077C95.9637 16.2077 99.4837 18.6487 99.8357 22.7462H96.4917C96.1877 20.6143 94.5556 19.1718 91.5237 19.1718C88.6677 19.1718 86.8196 20.5667 86.8196 22.5322C86.8196 28.2861 100.548 23.4912 100.548 32.8591C100.548 37.131 96.9876 40.008 91.6597 40.008C86.3316 40.008 83.1717 37.0914 82.7717 32.8591V32.8512Z" fill="white"/>
<path d="M136.86 0H112.508C110.3 0 108.508 1.77531 108.508 3.96275V28.088C108.508 30.2754 110.3 32.0507 112.508 32.0507H136.86C139.068 32.0507 140.86 30.2754 140.86 28.088V3.96275C140.86 1.77531 139.068 0 136.86 0ZM133.66 22.0012L130.716 24.9178L124.692 18.9499L118.668 24.9178L115.724 22.0012L121.748 16.0333L115.724 10.0654L118.668 7.1488L124.692 13.1167L130.716 7.1488L133.66 10.0654L127.636 16.0333L133.66 22.0012Z" fill="url(#paint0_linear_2088_14037)"/>
</g>
<defs>
<linearGradient id="paint0_linear_2088_14037" x1="115.6" y1="3.82143" x2="132.176" y2="29.9726" gradientUnits="userSpaceOnUse">
<stop stop-color="#CFFF93"/>
<stop offset="1" stop-color="#00FFB2"/>
</linearGradient>
<clipPath id="clip0_2088_14037">
<rect width="140.72" height="40" fill="white" transform="translate(0.139648)"/>
</clipPath>
</defs>
</svg>
