<svg width="141" height="40" viewBox="0 0 141 40" fill="none" xmlns="http://www.w3.org/2000/svg">
<g clip-path="url(#clip0_2088_14032)">
<path d="M55.0605 28.1038C55.0605 21.2641 60.1566 16.2076 66.9171 16.2076C73.6775 16.2076 78.7261 21.3037 78.7261 28.1038C78.7261 34.9039 73.6696 40 66.8695 40C60.0695 40 55.0605 34.9911 55.0605 28.1038ZM75.1992 28.1038C75.1992 23.0949 71.7596 19.3461 66.8775 19.3461C61.9954 19.3461 58.5953 23.1345 58.5953 28.1038C58.5953 33.0731 62.035 36.8615 66.8775 36.8615C71.7199 36.8615 75.1992 33.1603 75.1992 28.1038Z" fill="white"/>
<path d="M5.06677 32.5897V19.687H0.794922V16.7704H4.19496C4.80522 16.7704 5.28868 16.3741 5.28868 15.637V10.1922H8.51436V16.7704H15.4888V19.687H8.51436V32.5421C8.51436 34.9832 9.43372 36.4177 12.0412 36.4177H15.1797V39.4215H11.8272C7.64255 39.4215 5.07469 37.1548 5.07469 32.5818L5.06677 32.5897ZM18.9681 28.1039C18.9681 20.8679 23.8898 16.2077 30.0796 16.2077C36.9669 16.2077 41.0644 21.2641 41.0644 27.8027V29.3244H22.5821C22.7565 33.8578 25.6731 36.8615 30.3412 36.8615C33.3449 36.8615 36.2219 35.427 37.2681 32.764H40.8425C39.5823 36.9883 35.6116 40 30.2936 40C23.3667 40 18.9602 34.9039 18.9602 28.1039H18.9681ZM37.4107 26.2731C37.1096 21.7397 33.9235 19.3462 30.0876 19.3462C26.2516 19.3462 23.0259 22.0884 22.6772 26.2731H37.4107ZM45.8672 34.5948V6.74463H49.3069V34.5948C49.3069 35.7282 49.8696 36.3781 50.9633 36.3781H52.0095V39.4294H50.3531C47.5157 39.4294 45.8593 37.6858 45.8593 34.5948H45.8672ZM82.6574 32.8512H86.0099C86.4062 35.5538 88.3241 36.9883 91.6291 36.9883C94.934 36.9883 96.8995 35.3319 96.8995 33.0256C96.8995 26.6614 83.3469 31.5039 83.3469 22.5243C83.3469 18.6884 86.7866 16.2077 91.5419 16.2077C95.7266 16.2077 99.2138 18.6487 99.5625 22.7462H96.2496C95.9485 20.6143 94.3317 19.1718 91.3279 19.1718C88.4985 19.1718 86.6677 20.5667 86.6677 22.5322C86.6677 28.2861 100.268 23.4912 100.268 32.8592C100.268 37.131 96.741 40.008 91.4626 40.008C86.1843 40.008 83.0537 37.0914 82.6574 32.8592V32.8512Z" fill="white"/>
<path d="M136.241 0H112.116C109.929 0 108.153 1.77531 108.153 3.96275V28.088C108.153 30.2754 109.929 32.0507 112.116 32.0507H136.241C138.429 32.0507 140.204 30.2754 140.204 28.088V3.96275C140.204 1.77531 138.429 0 136.241 0ZM133.071 22.0012L130.155 24.9178L124.187 18.9499L118.219 24.9178L115.302 22.0012L121.27 16.0333L115.302 10.0654L118.219 7.1488L124.187 13.1167L130.155 7.1488L133.071 10.0654L127.103 16.0333L133.071 22.0012Z" fill="white"/>
</g>
<defs>
<clipPath id="clip0_2088_14032">
<rect width="139.41" height="40" fill="white" transform="translate(0.794922)"/>
</clipPath>
</defs>
</svg>
