<?xml version="1.0" encoding="UTF-8"?>
<svg id="Layer_1" data-name="Layer 1" xmlns="http://www.w3.org/2000/svg" version="1.1" viewBox="0 0 180 40">
  <defs>
    <style>
      .cls-1 {
        fill: #fff;
        stroke-width: 0px;
      }
    </style>
  </defs>
  <path class="cls-1" d="M54.6,28.1c0-6.8,5.1-11.9,11.9-11.9s11.8,5.1,11.8,11.9-5.1,11.9-11.9,11.9-11.8-5-11.8-11.9ZM74.8,28.1c0-5-3.4-8.8-8.3-8.8s-8.3,3.8-8.3,8.8,3.4,8.8,8.3,8.8,8.3-3.7,8.3-8.8Z"/>
  <path class="cls-1" d="M4.6,32.6v-12.9H.4v-2.9h3.4c.6,0,1.1-.4,1.1-1.1v-5.4h3.2v6.6h7v2.9h-7v12.9c0,2.4.9,3.9,3.5,3.9h3.1v3h-3.4c-4.2,0-6.8-2.3-6.8-6.8h0ZM18.5,28.1c0-7.2,4.9-11.9,11.1-11.9s11,5.1,11,11.6v1.5h-18.5c.2,4.5,3.1,7.5,7.8,7.5s5.9-1.4,6.9-4.1h3.6c-1.3,4.2-5.2,7.2-10.5,7.2s-11.3-5.1-11.3-11.9h0ZM37,26.3c-.3-4.5-3.5-6.9-7.3-6.9s-7.1,2.7-7.4,6.9h14.7ZM45.4,34.6V6.7h3.4v27.9c0,1.1.6,1.8,1.7,1.8h1v3.1h-1.7c-2.8,0-4.5-1.7-4.5-4.8ZM82.2,32.9h3.4c.4,2.7,2.3,4.1,5.6,4.1s5.3-1.7,5.3-4c0-6.4-13.6-1.5-13.6-10.5s3.4-6.3,8.2-6.3,7.7,2.4,8,6.5h-3.3c-.3-2.1-1.9-3.6-4.9-3.6s-4.7,1.4-4.7,3.4c0,5.8,13.6,1,13.6,10.3s-3.5,7.1-8.8,7.1-8.4-2.9-8.8-7.1Z"/>
  <path class="cls-1" d="M175.7,32.1h-64c-2.2,0-4-1.8-4-4V4C107.7,1.8,109.5,0,111.7,0h64C177.9,0,179.6,1.8,179.6,4v24.1c0,2.2-1.8,4-4,4ZM111.9,24.9h13.7v-3.5h-8.6v-.2l8.5-10.6v-3.5h-13.3v3.4h8.2v.2l-8.5,10.6v3.5h0ZM128.4,24.9h11.5v-3.5h-7.5v-3.8h6.2v-3.4h-6.2v-3.7h7.2v-3.4h-11.3v17.8h0ZM142.2,24.9h4v-5.9h2.4l3,5.9h4.5l-3.8-6.7c1.8-.9,3.2-2.8,3.2-5.2,0-3.5-2.7-5.9-6.3-5.9h-7v17.8h0ZM146.2,15.5v-5h2.5c1.6,0,2.6,1,2.6,2.4s-1.1,2.5-2.5,2.5h-2.6ZM166.7,25.3c5.4,0,9.5-4,9.5-9.2s-4-9.2-9.5-9.2-9.5,4-9.5,9.2,4,9.2,9.5,9.2ZM166.7,21.4c-3.1,0-5.3-2.3-5.3-5.4s2.2-5.4,5.3-5.4,5.3,2.3,5.3,5.4-2.2,5.4-5.3,5.4Z"/>
</svg>